/* XPM */
static char * icon_128_xpm[] = {
"48 48 185 2",
"  	c None",
". 	c #9374E5",
"+ 	c #9475E6",
"@ 	c #9976E1",
"# 	c #9A77E3",
"$ 	c #9C78E4",
"% 	c #9D79E5",
"& 	c #9E7AE6",
"* 	c #987CE6",
"= 	c #9F7BE7",
"- 	c #997DE7",
"; 	c #9D7DE1",
"> 	c #9A7EE8",
", 	c #9E7EE2",
"' 	c #A07FE4",
") 	c #A180E5",
"! 	c #A281E6",
"~ 	c #9C83E6",
"{ 	c #A382E7",
"] 	c #9D84E7",
"^ 	c #A483E8",
"/ 	c #9E85E8",
"( 	c #A285E2",
"_ 	c #9F86E9",
": 	c #A386E3",
"< 	c #A685EA",
"[ 	c #A087EA",
"} 	c #A487E4",
"| 	c #A688E6",
"1 	c #A789E7",
"2 	c #A88AE8",
"3 	c #A98BE9",
"4 	c #A38DE9",
"5 	c #AA8CEA",
"6 	c #A48EEA",
"7 	c #AB8DEB",
"8 	c #A58FEB",
"9 	c #A98FE5",
"0 	c #A690EC",
"a 	c #AA90E7",
"b 	c #AB91E8",
"c 	c #AC92E9",
"d 	c #AE93EA",
"e 	c #AF94EB",
"f 	c #B494E6",
"g 	c #B095EC",
"h 	c #AA97EC",
"i 	c #AE97E6",
"j 	c #B595E8",
"k 	c #B196ED",
"l 	c #AB98ED",
"m 	c #AF98E7",
"n 	c #B297EE",
"o 	c #B697E9",
"p 	c #B099E9",
"q 	c #B798EA",
"r 	c #B19AEA",
"s 	c #B29BEB",
"t 	c #B39CEC",
"u 	c #B89CE7",
"v 	c #B49DED",
"w 	c #B99DE8",
"x 	c #B59EEE",
"y 	c #B79FEF",
"z 	c #BA9FE9",
"A 	c #B5A1E9",
"B 	c #BBA0EB",
"C 	c #B6A2EB",
"D 	c #BDA1EC",
"E 	c #B7A3EC",
"F 	c #B8A4ED",
"G 	c #BDA4E8",
"H 	c #B9A5EE",
"I 	c #BEA5E9",
"J 	c #BAA6EF",
"K 	c #BBA7F0",
"L 	c #BFA7EA",
"M 	c #BCA8F1",
"N 	c #C0A8EB",
"O 	c #C1A9ED",
"P 	c #C2AAEE",
"Q 	c #BCACEE",
"R 	c #C3ABEF",
"S 	c #BDADEF",
"T 	c #BEAEF0",
"U 	c #BFAFF1",
"V 	c #C3AFEB",
"W 	c #C1B0F2",
"X 	c #C4B0EC",
"Y 	c #C5B1ED",
"Z 	c #C6B2EF",
"` 	c #C8B3F0",
" .	c #C2B5F0",
"..	c #C9B4F1",
"+.	c #C3B6F1",
"@.	c #CAB5F2",
"#.	c #C4B7F2",
"$.	c #CBBAEF",
"%.	c #CCBBF0",
"&.	c #CDBCF2",
"*.	c #CEBDF3",
"=.	c #CFBEF4",
"-.	c #D0BFF5",
";.	c #CAC1F5",
">.	c #D4BFEF",
",.	c #CEC1EF",
"'.	c #D5C0F0",
").	c #CFC2F0",
"!.	c #D6C1F1",
"~.	c #D0C3F1",
"{.	c #D1C4F2",
"].	c #D2C5F3",
"^.	c #D3C6F5",
"/.	c #D4C7F6",
"(.	c #D8C7F0",
"_.	c #D5C8F7",
":.	c #D9C8F1",
"<.	c #DAC9F2",
"[.	c #D4CBF2",
"}.	c #DBCAF3",
"|.	c #D5CCF3",
"1.	c #DCCBF4",
"2.	c #D6CDF4",
"3.	c #D7CEF5",
"4.	c #D8D0F6",
"5.	c #DDD0F1",
"6.	c #D9D1F8",
"7.	c #DED1F3",
"8.	c #DBD2F9",
"9.	c #DFD3F4",
"0.	c #E0D4F5",
"a.	c #E1D5F6",
"b.	c #DBD7F6",
"c.	c #E2D6F7",
"d.	c #DCD8F7",
"e.	c #E3D7F8",
"f.	c #DDD9F8",
"g.	c #E5D8F9",
"h.	c #DFDAF9",
"i.	c #E2DAF3",
"j.	c #E6D9FB",
"k.	c #E0DBFA",
"l.	c #E3DBF4",
"m.	c #E4DCF6",
"n.	c #E5DDF7",
"o.	c #E6DEF8",
"p.	c #E7DFF9",
"q.	c #E8E0FA",
"r.	c #ECE0F4",
"s.	c #EAE1FB",
"t.	c #EDE1F5",
"u.	c #E7E3F5",
"v.	c #EBE2FC",
"w.	c #E5E4FC",
"x.	c #EEE2F6",
"y.	c #E8E4F6",
"z.	c #EFE3F7",
"A.	c #E9E5F7",
"B.	c #F0E4F8",
"C.	c #EAE6F8",
"D.	c #EBE7FA",
"E.	c #ECE9FB",
"F.	c #F0E9F6",
"G.	c #EDEAFC",
"H.	c #F2EAF7",
"I.	c #EFEBFD",
"J.	c #F0ECFE",
"K.	c #F3ECF8",
"L.	c #F4EDF9",
"M.	c #F5EEFA",
"N.	c #F0F1FB",
"O.	c #F7F0FC",
"P.	c #F1F2FC",
"Q.	c #F2F3FD",
"R.	c #F3F4FF",
"S.	c #F6F4F8",
"T.	c #F5F5FF",
"U.	c #F8F5FA",
"V.	c #F9F6FB",
"W.	c #FAF7FC",
"X.	c #FBF8FD",
"Y.	c #FCFAFE",
"Z.	c #FDFBFF",
"`.	c #FCFFFB",
" +	c #FEFFFC",
" + + + + + + + + + + + + + + + + + + + + + + + + + + + + + + + + + + + + + + + + + + + + + + + +",
" + + + + + + + + + + + + + + + + + + + + + + + + + + + + + + + + + + + + + + + + + + + + + + + +",
" + + + + + + + + + + + + + + + + + + + + + + + + + + + + + + + + + + + + + + + + + + + + + + + +",
" + + + + + + + + + + + + + + + + +A.A.z.B.A.C.C.C.C.I.F.I. + + + + + + + + + + + + + + + + + + +",
" + + + + + + + + + + + + + + + + +u.x.y.A.A.z.C.C.C.C.C.C. + + + + + + + + + + + + + + + + + + +",
" + + + + + + + + + + + + + + + + +p.p.p.p.p.t.s.x.x.A.A.A. + + + + + + + + + + + + + + + + + + +",
" + + + + + + + + + + + + + + + + +m.m.n.n.o.o.p.p.p.p.p.r. + + + + + + + + + + + + + + + + + + +",
" + + + + + + + + + + + + + + + + +h.h.l.g.m.m.m.n.n.o.o.p. + + + + + + + + + + + + + + + + + + +",
" + + + + + + + + + + + + + + + + +c.c.d.h.h.g.h.k.k.m.m.m. + + + + + + + + + + + + + + + + + + +",
" + + + + + + + + + + + + + + + + +5.5.0.0.c.c.c.c.d.h.h.g. + + + + + + + + + + + + + + + + + + +",
" + + + + + + + + + + + + + + + + +8.8.5.5.5.5.0.c.c.c.c.d. + + + + + + + + + + + + + + + + + + +",
" + + + + + + + + + + + + + + + + +2.3.4.4.4.4.5.5.5.5.5.0. + + + + + + + + + + + + + + + + + + +",
" + + + + + + + + + + + + + + + + +<.}.1.1.1.2.3.4.3.4.4.4. + + + + + + + + + + + + + + + + + + +",
" + + + + + + + + + + + + + + + + +_.:._.:.<.2.}.}.2.2.3.3. + + + + + + + + + + + + + + + + + + +",
" + + + + + + + + + + + + + + + + +].^.^.^./././._._.<.}.}. + + + + + + + + + + + + + + + + + + +",
" + + + + + + + + + + + + + + + + +~.~.~.{.{.{.].].^.^././. + + + + + + + + + + + + + + + + + + +",
" + + + + + + + + + + + + + + + + +-.>.).'.).!.{.{.].^.].^. + + + + + + + + + + + + + + + + + + +",
" + + + + + + + + + + + + + + + + +=.=.=.-.-.).).).).~.~.~. + + + + + + + + + + + + + + + + + + +",
" + + +& - & = ) ! : | 2 5 b e k p c e p r v z F J N S W Y %.).~.^.:.}.3.8.5.d.k.m.p.t.A. + + + +",
" + + +* & * > ) ! _ | 2 a b e j r c h p s v z F J N S W Z =.).~.].<.}.4.5.0.h.l.n.p.x.A. + + + +",
" + + +* - & > ) { | | 3 a b e j q c e p s v A H J N S W Z =.'.{.^.|.1.4.5.c.h.m.n.p.z.A. + + + +",
" + + +- - & ' ) / | 1 3 a c e p r c g p s v A F K O R Y Z -.~.{.^.}.2.4.5.c.g.m.o.r.z.C. + + + +",
" + + +- - & ' ) / | 1 5 b c g r s d g p s v z H N N S Y ` -.~.]./.}.2.5.0.c.h.m.p.p.A.C. + + + +",
" + + +- & - ) ! _ | 1 5 b d g s s c m p s v z H J O S Y Z -.{.].:.}.3.5.0.c.h.m.p.y.C.C. + + + +",
" + + +- * > ) ! _ 1 2 5 b e m s t d m p s z A H K O S Y Z ).].]._.}.4.8.c.c.k.n.p.x.C.C. + + + +",
" + + +& - > ) { | 1 3 a c d j s t d k r t w z H L O S Y ` '.].^.<.2.4.5.c.c.l.o.p.x.C.C. + + + +",
" + + +- & > ! { | 1 3 a c e p s t d f p s z z H L O S W ` !.].^.}.2.4.5.c.g.m.o.p.z.C.I. + + + +",
" + + +- & ' ! / | 2 6 b d e p s v d m r t w A H N O S W ` ~.].(.}.3.4.0.d.g.m.o.p.A.C.I. + + + +",
" + + +- & ' ! ^ | 2 5 b e g r t v d m r t A A H N P S Y ..{.^./.}.3.8.0.d.i.m.p.t.z.I.F. + + + +",
" + + +- - ) ! _ 1 3 6 b e k s v v d m r t z A J N O S Y ` {./._.}.4.5.c.h.k.n.p.t.A.C.I. + + + +",
" + + + + + + + + + + + + + + + + +k p o r r r s s s t v v  + + + + + + + + + + + + + + + + + + +",
" + + + + + + + + + + + + + + + + +e k k k p o r r r s s s  + + + + + + + + + + + + + + + + + + +",
" + + + + + + + + + + + + + + + + +c d e e e e g k m m p r  + + + + + + + + + + + + + + + + + + +",
" + + + + + + + + + + + + + + + + +a a b b b d d d e e e g  + + + + + + + + + + + + + + + + + + +",
" + + + + + + + + + + + + + + + + +3 3 5 7 a 0 b b b c d d  + + + + + + + + + + + + + + + + + + +",
" + + + + + + + + + + + + + + + + +2 2 2 2 3 3 5 5 5 8 a b  + + + + + + + + + + + + + + + + + + +",
" + + + + + + + + + + + + + + + + +_ | | | | | 1 2 2 3 3 3  + + + + + + + + + + + + + + + + + + +",
" + + + + + + + + + + + + + + + + +_ : _ [ | | | | | 1 2 3  + + + + + + + + + + + + + + + + + + +",
" + + + + + + + + + + + + + + + + +) ! ! { { ^ : : : | [ |  + + + + + + + + + + + + + + + + + + +",
" + + + + + + + + + + + + + + + + +' ) ) ) ) ) ! ! ! { / ^  + + + + + + + + + + + + + + + + + + +",
" + + + + + + + + + + + + + + + + +& - > > > ' ) ) ) ) ) !  + + + + + + + + + + + + + + + + + + +",
" + + + + + + + + + + + + + + + + +- * - * & & - = > > > '  + + + + + + + + + + + + + + + + + + +",
" + + + + + + + + + + + + + + + + +- & - - - - & - & - & &  + + + + + + + + + + + + + + + + + + +",
" + + + + + + + + + + + + + + + + +* & - * * * * * * * * *  + + + + + + + + + + + + + + + + + + +",
" + + + + + + + + + + + + + + + + + + + + + + + + + + + + + + + + + + + + + + + + + + + + + + + +",
" + + + + + + + + + + + + + + + + + + + + + + + + + + + + + + + + + + + + + + + + + + + + + + + +",
" + + + + + + + + + + + + + + + + + + + + + + + + + + + + + + + + + + + + + + + + + + + + + + + +",
" + + + + + + + + + + + + + + + + + + + + + + + + + + + + + + + + + + + + + + + + + + + + + + + +"};
